<svg width="100px" height="100px" viewBox="0 0 100 100" enable-background="new 0 0 800 800" id="GUIDE" version="1.1" xml:space="preserve" xmlns="http://www.w3.org/2000/svg" xmlns:cc="http://creativecommons.org/ns#" xmlns:dc="http://purl.org/dc/elements/1.1/" xmlns:inkscape="http://www.inkscape.org/namespaces/inkscape" xmlns:rdf="http://www.w3.org/1999/02/22-rdf-syntax-ns#" xmlns:sodipodi="http://sodipodi.sourceforge.net/DTD/sodipodi-0.dtd" xmlns:svg="http://www.w3.org/2000/svg" xmlns:xlink="http://www.w3.org/1999/xlink">
  <g>
    <path class="jp-icon2" fill="#424242" d="M84.579 22.925 65.317 3.663a2.492 2.492 0 0 0 -1.767 -0.733H17.188a2.5 2.5 0 0 0 -2.5 2.5v89.142a2.5 2.5 0 0 0 2.5 2.5h65.625a2.5 2.5 0 0 0 2.5 -2.5V24.692a2.529 2.529 0 0 0 -0.733 -1.767zm-4.267 69.146H19.688V7.929h42.829l14.263 14.263h-10.725V16.967a2.5 2.5 0 0 0 -5 0v7.725a2.5 2.5 0 0 0 2.5 2.5h16.758v64.883z"/>
    <path class="jp-icon2" fill="#424242" d="M36.904 28.054 31.921 33.038l-0.713 -0.713a2.5 2.5 0 1 0 -3.533 3.538l2.479 2.479a2.5 2.5 0 0 0 3.538 0l6.75 -6.75a2.504 2.504 0 0 0 -3.538 -3.538z"/>
    <path class="jp-icon2" fill="#424242" d="M69.729 39.071h0.829a2.5 2.5 0 0 0 0 -5h-0.829a2.5 2.5 0 0 0 0 5z"/>
    <path class="jp-icon2" fill="#424242" d="M45.925 34.071a2.5 2.5 0 0 0 0 5h16.2a2.5 2.5 0 0 0 0 -5h-16.2z"/>
    <path class="jp-icon2" fill="#424242" d="M69.729 54.446h0.829a2.5 2.5 0 0 0 0 -5h-0.829a2.5 2.5 0 0 0 0 5z"/>
    <path class="jp-icon2" fill="#424242" d="M62.125 49.446h-16.2a2.5 2.5 0 0 0 0 5h16.2a2.5 2.5 0 0 0 0 -5z"/>
    <path class="jp-icon2" fill="#424242" d="M69.729 69.817h0.829a2.5 2.5 0 0 0 0 -5h-0.829a2.5 2.5 0 0 0 0 5z"/>
    <path class="jp-icon2" fill="#424242" d="M62.125 64.817h-16.2a2.5 2.5 0 0 0 0 5h16.2a2.5 2.5 0 0 0 0 -5z"/>
    <path class="jp-icon2" fill="#424242" d="M69.729 85.192h0.829a2.5 2.5 0 0 0 0 -5h-0.829a2.5 2.5 0 0 0 0 5z"/>
    <path class="jp-icon2" fill="#424242" d="M62.125 80.192h-16.2a2.5 2.5 0 0 0 0 5h16.2a2.5 2.5 0 0 0 0 -5z"/>
    <path class="jp-icon2" fill="#424242" d="M31.921 54.446a2.5 2.5 0 0 0 1.767 -0.733l6.75 -6.75a2.504 2.504 0 0 0 -3.533 -3.538l-4.983 4.983 -0.713 -0.713a2.504 2.504 0 0 0 -3.538 3.538l2.479 2.479a2.5 2.5 0 0 0 1.767 0.733z"/>
    <path class="jp-icon2" fill="#424242" d="m29.279 63.942 -1.608 1.608a2.504 2.504 0 0 0 3.533 3.538l1.608 -1.608 1.608 1.608a2.5 2.5 0 1 0 3.533 -3.533l-1.608 -1.608 1.608 -1.608a2.504 2.504 0 0 0 -3.538 -3.538l-1.608 1.608 -1.608 -1.608a2.5 2.5 0 0 0 -3.533 3.533l1.608 1.608z"/>
    <path class="jp-icon2" fill="#424242" d="m36.904 74.175 -4.983 4.983 -0.713 -0.713a2.5 2.5 0 0 0 -3.533 3.533l2.479 2.479a2.5 2.5 0 0 0 3.538 0l6.75 -6.75a2.504 2.504 0 0 0 -3.538 -3.538z"/>
  </g>
</svg>
